<?xml version="1.0" standalone="no"?>
<!DOCTYPE svg PUBLIC "-//W3C//DTD SVG 1.1//EN" "http://www.w3.org/Graphics/SVG/1.1/DTD/svg11.dtd" >
<svg xmlns="http://www.w3.org/2000/svg" xmlns:xlink="http://www.w3.org/1999/xlink" version="1.1">
<metadata>
Created by FontForge 20170731 at Mon Jul 22 15:38:56 2013
 By Aleksey,,,
</metadata>
<defs>
<font id="BoB" horiz-adv-x="833" >
  <font-face 
    font-family="BoB"
    font-weight="400"
    font-stretch="normal"
    units-per-em="1000"
    panose-1="0 0 0 0 0 0 0 0 0 0"
    ascent="750"
    descent="-250"
    x-height="558.5"
    cap-height="601"
    bbox="-75.1333 -376.111 928.261 930.25"
    underline-thickness="50"
    underline-position="-150"
    unicode-range="U+000D-007A"
  />
<missing-glyph horiz-adv-x="500" 
 />
    <glyph glyph-name=".notdef" horiz-adv-x="500" 
 />
    <glyph glyph-name=".null" horiz-adv-x="0" 
 />
    <glyph glyph-name="nonmarkingreturn" unicode="&#xd;" horiz-adv-x="500" 
 />
    <glyph glyph-name="NULL" horiz-adv-x="0" 
 />
    <glyph glyph-name="NULL" horiz-adv-x="0" 
 />
    <glyph glyph-name="space" unicode=" " horiz-adv-x="500" 
 />
    <glyph glyph-name="exclam" unicode="!" 
d="M417 -53q18 -1 32 -7q12 -5 21 -15.5t7 -30.5q0 -36 -14 -54t-46 -18q-15 0 -27.5 7t-20.5 17t-12.5 21.5t-4.5 20.5q0 7 2 17t8.5 19.5t19.5 16t35 6.5zM435 574q9 -99 16 -182l6 -70t6 -65t5 -52t3 -31q4 -18 4 -40t-5.5 -42.5t-17 -37t-29.5 -23.5t-35 -8t-29.5 6.5
t-19.5 26.5t-5 52q0 21 -1.5 56t-3.5 75.5t-4.5 83.5t-5.5 79.5t-5.5 63.5t-3.5 36q0 13 2 38t8.5 49t19.5 41t36 15q22 -5 34.5 -16.5t17.5 -23.5q6 -14 7 -31z" />
    <glyph glyph-name="quotedbl" unicode="&#x22;" 
d="M483 649q30 -15 51 -38q18 -20 30.5 -51.5t4.5 -76.5q-8 -46 -22 -69t-27.5 -32t-24 -9h-12.5q-3 0 -14.5 9t-14.5 25q0 16 10.5 29t23.5 13q6 2 13 7t10 11.5t0.5 13t-15.5 11.5t-33 10.5t-37.5 15t-27.5 24.5t-4 39q8 24 19.5 38.5t23.5 21.5t24.5 8.5t21.5 -0.5z
M666 654q30 -14 51 -37q18 -20 30.5 -51.5t4.5 -77.5q-8 -47 -22 -69.5t-27.5 -30.5t-24 -7.5t-12.5 0.5t-6.5 1.5t-9.5 5.5t-9 9.5t-4 13.5q-4 20 6 32t23 15q7 0 14 4t10 10t0.5 12.5t-15.5 11.5q-13 6 -32.5 12t-37 15.5t-27 24t-1.5 38.5q6 25 17 39.5t23 21.5t25 7.5
t24 -0.5z" />
    <glyph glyph-name="numbersign" unicode="#" 
d="M635 481q27 0 44 -21t7 -58q-6 -22 -17 -33.5t-23 -17t-23 -6.5t-17 -1q-5 0 -16 1.5t-22.5 1t-21 -6t-12.5 -18.5q-3 -11 6 -15t20 -6q13 -2 32 0q22 -1 39 -6q14 -5 24.5 -15.5t8.5 -29.5q-3 -21 -11 -34t-20.5 -20t-30 -9t-39.5 -2t-34 -9t-17 -20q-6 -12 -7 -28
q0 -8 -1 -19q-2 -20 -6 -46q-3 -11 -6 -27t-10.5 -30t-20.5 -23.5t-35 -6.5q-22 0 -32.5 7.5t-14.5 17.5q-4 11 -3 26q6 22 11 42l10 34t8 25t5 15.5t0.5 14.5t-8 12t-19.5 8q-14 2 -24.5 -2t-18.5 -10q-9 -7 -15 -17l-29 -101q-4 -19 -14 -30q-8 -11 -22 -16t-36 3
q-24 8 -30 28t-2 44t14 49.5t18 44.5q6 19 0.5 28t-16.5 12.5t-24.5 3t-24.5 -0.5t-24.5 5t-25.5 14.5t-20.5 23t-8.5 29.5q0 17 11 24t25 10q16 3 36 2q17 -2 31 -4q12 -2 24 -2.5t17 -0.5q8 0 16 -0.5t15.5 2.5t14.5 10.5t12 23.5q2 14 -2.5 20t-12.5 8q-9 3 -21 1
q-19 -2 -37 -3q-16 -1 -33 -0.5t-31 3.5q-32 5 -41.5 20.5t-9.5 37.5q0 14 9 23t20 15q12 7 29 12q21 -1 42 -4q18 -2 39.5 -5t41.5 -5q19 -3 29 2t15 13q5 9 6 21l36 101q3 12 10 20q6 7 17 10.5t31 -1.5q19 -3 24.5 -15t3.5 -27t-8.5 -29.5t-12.5 -22.5q-3 -5 -6 -14
t-2 -18t7.5 -16t22.5 -10q19 -3 31.5 8.5t20.5 28.5t12.5 35t7.5 29q5 8 12 20.5t17.5 23t24 17.5t32.5 4t25 -12t5 -20q-1 -12 -8 -26q-2 -12 -6 -23t-9.5 -23t-13.5 -26q-11 -16 -11 -25t7 -13t18 -4.5t22 -0.5zM469 330q3 11 -1 19t-10 13q-7 6 -17 11q-11 5 -25.5 1.5
t-25.5 -30.5q-8 -14 -7.5 -23.5t5.5 -15.5t14 -8.5t17 -2.5q17 -6 31 6.5t19 29.5z" />
    <glyph glyph-name="percent" unicode="%" 
d="M447 163q20 -3 37 -10q14 -6 25.5 -18.5t11.5 -33.5q-5 -42 -20.5 -63.5t-53.5 -21.5q-17 0 -29.5 7.5t-21 19t-12.5 24t-4 22.5q0 9 1.5 20.5t8.5 23t20.5 20t36.5 10.5zM329 580q20 -3 36 -10q14 -6 24 -18.5t8 -33.5q-5 -42 -20 -63t-48 -21q-19 0 -33 8t-23 20
t-13.5 24.5t-4.5 21.5q0 10 2 22.5t9.5 23.5t22 18.5t40.5 7.5zM521 626q9 13 20 22q10 8 24 11t34 -5q21 -6 25.5 -26t0 -43.5t-14.5 -45t-16 -31.5q-6 -6 -26.5 -38t-49 -78t-61 -99.5t-62.5 -103t-52.5 -88.5t-31.5 -56q-12 -28 -26.5 -40.5t-28.5 -13.5t-27.5 7.5
t-23.5 23.5q-13 15 -15 34t2.5 38.5t14 37.5t20.5 31q5 6 20.5 29.5t37 57t47.5 74.5t52 83q62 98 137 219z" />
    <glyph glyph-name="ampersand" unicode="&#x26;" 
d="M632 174q16 0 27 -6t17 -15t7 -20t-1 -20t-8 -17.5t-15 -13t-21.5 -3.5t-28.5 10q-18 9 -33.5 3.5t-29 -17.5t-25 -27t-23.5 -26q-9 -12 -32 -23.5t-56 -14.5t-74.5 7t-86.5 42q-46 30 -60.5 64.5t-8.5 68t27.5 64.5t46.5 54t32 46t-0.5 46t-27 45.5t-47.5 45.5
q-27 23 -36 44.5t-8 42t8 38.5t12 34q7 16 27.5 25t43.5 13q26 4 58 5q18 0 48.5 -1.5t62.5 -9.5t60 -25t42 -49q12 -32 8.5 -58.5t-16 -51.5t-31.5 -50t-40 -55q-18 -30 -14.5 -49t16 -32t27 -22t19.5 -18q7 -12 15 -15t15 0.5t12 12t7 20.5q3 12 14 24t26 19.5t30.5 7
t27.5 -14.5q12 -16 12 -30t-6.5 -25.5t-17 -20.5t-19.5 -16t-12.5 -14t-1 -13t10 -8.5t21.5 -0.5zM356 606q-9 0 -19 -6.5t-19 -18t-15 -27t-6 -34.5q0 -18 6 -33.5t15 -26.5t19 -17.5t19 -6.5q29 0 46 24t17 60q0 38 -17 62t-46 24zM431 100q14 20 8.5 46t-28.5 47
q-10 10 -22.5 16.5t-25.5 8t-24.5 -2t-18.5 -13.5q-14 -15 -8.5 -39.5t28.5 -44.5q10 -11 22.5 -18t25.5 -9.5t24 -0.5t19 10z" />
    <glyph glyph-name="quotesingle" unicode="'" 
d="M684 95q27 -14 45 -34q16 -18 26.5 -45.5t3.5 -67.5q-7 -41 -19.5 -62t-24.5 -29t-21 -8h-10q-3 0 -13.5 8t-13.5 22q0 14 9.5 26t20.5 12q6 1 12 6t9 10.5t0.5 11.5t-13.5 10t-29 9t-33.5 13.5t-25 22.5t-3.5 35q7 21 17 33.5t21.5 19t22 7.5t19.5 0z" />
    <glyph glyph-name="parenleft" unicode="(" 
d="M153 557q6 33 19 57q11 20 31.5 34t54.5 5q24 -5 39.5 -14t24.5 -21t12.5 -26t3.5 -28q0 -33 -16 -71q-12 -34 -26 -75q-12 -35 -28 -84t-34 -106q-18 -54 -11.5 -98.5t22 -77.5t33 -53.5t20.5 -26.5t13.5 -17t16.5 -27t1.5 -37t-31.5 -48t-53.5 -30.5t-46.5 3.5
q-24 8 -45 27q-57 45 -84 90.5t-36 85t-6 71.5t6 50q1 10 7 33.5t15 55t19.5 68t21.5 72.5q26 85 57 188z" />
    <glyph glyph-name="parenright" unicode=")" 
d="M638 555q28 -102 52 -186l20 -72t18 -67t13.5 -54.5t7.5 -33.5q3 -18 7.5 -49.5t-3 -71t-33 -84t-82.5 -89.5q-21 -19 -45 -27q-20 -7 -45.5 -3.5t-52.5 30.5q-30 27 -36 48t0 37t18 26t18 16q3 6 20 26.5t32.5 53.5t22.5 77t-11 97q-18 57 -34 105t-28 83q-14 41 -26 74
q-18 37 -20 70q-1 14 2 28t11.5 26t23.5 21t39 14q32 9 53.5 -5t34.5 -34q15 -24 23 -56z" />
    <glyph glyph-name="asterisk" unicode="*" 
d="M535 631q21 2 36 -1q13 -3 22.5 -11t4.5 -28q-5 -17 -11 -33.5t-7.5 -28.5t4.5 -18t26 -2q21 4 38 13.5t31 14t26.5 -1t25.5 -31.5q15 -24 9.5 -40.5t-20 -25.5t-31 -10t-22.5 5q-8 7 -17.5 4t-15.5 -11.5t-6.5 -20.5t10.5 -23t24.5 -23.5t21.5 -27t7.5 -29.5t-17.5 -30
q-18 -18 -34 -13.5t-28 16.5q-14 14 -26 38q-8 9 -16 17q-7 6 -13.5 11.5t-11.5 5.5q-13 0 -25.5 -18t-26.5 -40q-6 -11 -19 -20t-27 -12t-27 1t-19 19q-7 15 -4 26.5t10.5 19t15.5 12t12 6.5q4 0 13 6t17 16t13.5 22.5t3.5 25.5q-4 13 -15.5 15t-24 0t-23 -6t-13.5 -4
q-2 -2 -13 -2t-22 6t-19 20t-3 40q6 26 16.5 38t21.5 14.5t22.5 -3t20.5 -13.5q8 -11 22 -21.5t27 -13.5t22.5 4t9.5 31t-3.5 42.5t-4 32.5t5.5 24t26 16z" />
    <glyph glyph-name="plus" unicode="+" 
d="M368 509q0 5 1.5 14t9 17.5t24 14.5t46.5 6q31 0 44 -12.5t15.5 -31t-1 -40.5t-6.5 -41q-3 -17 4.5 -28.5t20.5 -18.5t30 -10t33 -3q20 0 31.5 -5t17.5 -14t8 -21.5t2 -26.5q0 -27 -19.5 -39t-75.5 -12q-28 0 -43 -10.5t-22 -24.5t-8 -27t-1 -19v-22.5t-5.5 -33
t-19.5 -28t-42 -5.5q-30 3 -45.5 18t-22 35t-6.5 41.5v38.5t-3.5 26t-11.5 14t-22.5 7t-36.5 5q-22 2 -35 5.5t-20 10.5t-9 18.5t-2 31.5q0 39 27 48t77 4q25 -3 37 3.5t17 15.5q5 11 5 26l7 73v0z" />
    <glyph glyph-name="comma" unicode="," 
d="M606 144q38 -19 65 -49q23 -26 38.5 -66t5.5 -97q-10 -59 -27.5 -88.5t-35 -41t-31 -11.5h-15.5q-4 0 -18.5 12t-18.5 32q0 20 13 37t30 17q8 2 17 8.5t13 14.5t0.5 16.5t-19.5 14.5q-17 6 -42 13t-47.5 19.5t-35.5 32t-5 49.5q10 30 24.5 48.5t30 27.5t31 11t27.5 0z
" />
    <glyph glyph-name="hyphen" unicode="-" 
d="M309 364q13 -2 25 -6q11 -3 23 -8t23 -12q6 -3 31.5 -6.5t58.5 -5t68 -1t61 3.5q54 7 80 -14.5t26 -81.5q0 -33 -18 -48t-41.5 -20.5t-45 -4t-27.5 1.5q-5 0 -21 1.5t-39 3.5t-50 4t-52.5 4t-48 3.5t-35.5 1.5q-20 3 -48.5 5t-55 11t-45 29.5t-18.5 59.5q0 36 23 53
t51 23q33 7 75 3z" />
    <glyph glyph-name="period" unicode="." 
d="M715 41q23 -8 39 -21q14 -11 20.5 -29t-4.5 -44q-12 -26 -29.5 -39t-34 -17.5t-29.5 -2.5t-16 5q-3 0 -16.5 6t-26 17.5t-18.5 29t6 40.5q15 26 28 38t26.5 15.5t26.5 2.5t28 -1z" />
    <glyph glyph-name="slash" unicode="/" 
d="M601 511q10 16 26 27q14 9 33.5 13.5t46.5 -6.5q23 -8 26.5 -32t-3 -53t-18.5 -56t-20 -40q-4 -5 -19 -29t-37.5 -60.5t-50.5 -82t-57.5 -94t-58.5 -97t-54 -89.5t-44.5 -73t-28.5 -47q-16 -35 -32.5 -50.5t-33.5 -17t-33.5 9t-32.5 28.5q-16 19 -18.5 43t3.5 48t18 46.5
t25 38.5q8 7 27.5 36t46.5 71t59 92.5t64 102.5q75 121 166 271z" />
    <glyph glyph-name="zero" unicode="0" 
d="M665 382q0 -44 0.5 -98t-4.5 -109t-19.5 -106.5t-43.5 -91.5t-77 -64.5t-121 -24.5q-70 11 -119 46q-21 15 -39.5 36.5t-29.5 51.5t-13 69t10 89q26 100 55 179.5t64.5 131.5t81 74t104.5 8q42 -8 75 -31q14 -10 28 -24t24.5 -33.5t17 -45t6.5 -57.5zM434 59
q22 0 43 12.5t38.5 35t29.5 52t18 64.5q11 75 -10 120t-66 45q-46 0 -80 -45t-45 -120q-6 -35 -4 -64.5t11.5 -52t25.5 -35t39 -12.5z" />
    <glyph glyph-name="one" unicode="1" 
d="M213 563q13 6 37 14t55.5 15.5t68 15.5t74.5 14q41 6 61.5 -9.5t29.5 -35.5q11 -24 10 -56q-3 -123 -6 -223q-1 -43 -2.5 -85t-3 -77.5t-3 -60t-2.5 -32.5q-3 -15 -10 -32.5t-21.5 -32.5t-37.5 -25t-57 -10q-38 -4 -57 6t-27 24q-9 16 -8 36q6 86 10 160q2 31 4 63
t4 60.5t4 51t4 34.5q3 25 -7.5 30t-25 0t-28 -13t-16.5 -8q-3 -3 -16 -10.5t-31 -10t-38.5 4.5t-39.5 33q-16 38 -6 67.5t28 49.5q21 24 53 42z" />
    <glyph glyph-name="two" unicode="2" 
d="M321 577q2 0 18 -0.5t40 -3t52.5 -7.5t55 -15t48.5 -25.5t32 -37.5q19 -32 13 -70.5t-26 -78t-48.5 -77.5t-54.5 -68q-26 -28 -35 -47t-7.5 -34.5t9 -29.5t15.5 -31q7 -14 29.5 -19t49.5 -3.5t52 8t37 14.5q10 6 32 9.5t46 -0.5t46 -17.5t33 -40.5q7 -28 1 -50t-19.5 -36
t-32.5 -19t-38 1q-23 8 -54.5 7t-74 -4t-96.5 -4t-121 7q-33 4 -55 12t-35 18.5t-19 22.5t-7 24q-3 28 17 61q39 66 75 125q15 25 31 51t31 50t27.5 44.5t21.5 34.5q18 28 20.5 43.5t-2.5 22.5q-5 8 -18 9q-11 1 -21 -4q-8 -5 -17 -16t-13 -33q-3 -23 -14 -38.5t-23.5 -25
t-24 -13.5t-14.5 -4q-7 0 -31.5 3t-52 17t-52.5 41.5t-33 77.5q3 29 14 51t26 38t33 26.5t37 17.5q43 16 97 16z" />
    <glyph glyph-name="three" unicode="3" 
d="M248 683q29 3 70 0t85 -12t86.5 -23.5t74.5 -33.5q33 -19 50 -40t23 -45t2 -51.5t-14 -59.5q-13 -32 -18 -54.5t-1 -42.5t17 -41t35 -50q19 -29 23.5 -58.5t-1.5 -59.5t-21 -62.5t-34 -67.5q-23 -39 -56.5 -65t-71.5 -40t-76 -17.5t-70 2.5q-35 10 -74.5 27t-68.5 41
t-40 54.5t11 65.5q23 38 56.5 42.5t69.5 -7.5t70.5 -31.5t60.5 -29.5q29 -6 54 5.5t41.5 34t23.5 52.5t1 62q-9 33 -29.5 42t-42 7t-40 -11t-24.5 -12q-10 -3 -27.5 -6t-35.5 0t-32 16t-17 42t11.5 44.5t35.5 23t42 8.5t30 1q10 0 28 8.5t32 26t17 45t-16 65.5
q-20 35 -50 48.5t-62 15t-61.5 -4t-48.5 -8.5q-20 -3 -41 -4t-38.5 5.5t-29 22.5t-11.5 45q3 32 19 49t35 25q21 10 48 11z" />
    <glyph glyph-name="four" unicode="4" 
d="M331 615q24 30 49.5 44t49.5 16.5t44 -6t32 -23.5q15 -15 19.5 -36.5t0 -43t-18 -38.5t-34.5 -23q-20 -9 -44 -27t-47 -41.5t-42.5 -49t-31.5 -49.5q-15 -21 -8 -29.5t25 -10t40.5 2t37.5 6.5t21.5 11t8.5 19t1.5 24t-0.5 25q0 15 2 29t8 25t16.5 18t28.5 7q21 0 31 -11
t14.5 -29.5t6 -43t4.5 -51.5q0 -24 13 -32.5t30.5 -9.5t36.5 3.5t31 7.5q17 6 36.5 -9t26.5 -39q0 -12 -3 -24.5t-12.5 -23t-28.5 -17t-51 -6.5q-30 0 -41 -16.5t-11 -39.5t7 -47t13 -39q3 -18 7 -50t1 -63t-16.5 -54t-46.5 -23q-36 0 -51.5 28.5t-20.5 69t-4.5 85
t-2.5 77.5t-20 46t-46 15t-68 -1.5t-87 -3.5t-69.5 17t-26.5 42.5t1.5 54t15.5 52.5q6 13 16.5 32.5t23.5 42t28 47t30 47.5q34 55 75 116z" />
    <glyph glyph-name="five" unicode="5" 
d="M610 607q68 -6 87 -39t-5 -107q-12 -39 -32 -46.5t-42.5 1t-44 24t-36.5 21.5q-15 3 -42.5 9t-56.5 7.5t-53.5 -5t-33.5 -27.5t-2 -34t28 -24t55.5 -25.5t80.5 -38.5q46 -21 75 -56.5t41 -78.5t7 -92t-26 -97q-21 -49 -50.5 -83t-65.5 -54.5t-76.5 -28.5t-82.5 -5
q-43 6 -73 28t-46 50t-17 58t14 51q15 24 31.5 34t35 10t38.5 -8t41 -20q49 -24 81.5 -5t32.5 86q0 33 -20 56.5t-50 38t-64 21t-61 6.5q-24 0 -41.5 21t-29 48t-18 54t-9.5 39q-6 12 -9 31t2 40.5t22 43t50 39.5q18 7 43.5 14t54.5 12.5t60 10t61 7.5q70 8 146 13z" />
    <glyph glyph-name="six" unicode="6" 
d="M556 256q57 -38 83.5 -78.5t35 -78t5.5 -69t-6 -50.5q-3 -22 -22 -52t-52.5 -58.5t-82 -49.5t-110.5 -24q-42 -2 -85 11.5t-80.5 42t-66.5 71t-43 98t-9.5 123t33.5 147.5q23 60 51 105t57.5 78.5t59.5 56.5t58 38q65 35 133 40q56 6 89.5 -12.5t48 -47.5t10.5 -61.5
t-23 -54.5q-13 -15 -28 -16.5t-32 4t-33.5 14.5t-32 16t-28.5 8t-21 -9q-12 -13 -20.5 -30.5t-2.5 -41t32 -53.5t82 -67zM434 -38q24 0 44.5 7.5t35 20t22.5 28t8 31.5q0 51 -30.5 80.5t-79.5 29.5q-34 0 -60.5 -29.5t-26.5 -80.5q0 -16 7.5 -31.5t19.5 -28t27.5 -20
t32.5 -7.5z" />
    <glyph glyph-name="seven" unicode="7" 
d="M278 677q32 7 67 11q30 3 68.5 3.5t79.5 -5.5q43 -3 61.5 -25t21.5 -49.5t-4 -55.5t-14 -43q-3 -16 -5 -37t-4 -43.5t-5.5 -44.5t-9.5 -41q-6 -22 -5 -33.5t7.5 -16t17 -3.5t22.5 4q9 0 21.5 -6t24.5 -16t20 -23.5t8 -28.5q0 -25 -22 -46.5t-78 -28.5q-25 0 -38.5 -8
t-19.5 -17q-7 -11 -8 -25q0 -3 -2.5 -28.5t-5.5 -58t-5.5 -64.5t-2.5 -47t-5.5 -36t-18.5 -38.5t-35.5 -26t-56.5 0.5q-38 6 -51 22.5t-15 33.5q-2 20 8 44q12 40 24 79q10 32 21.5 67.5t21.5 60.5q6 25 2 36t-15 14t-27.5 1.5t-34.5 -1.5q-31 0 -52.5 14t-21.5 52
q3 18 13.5 27.5t27.5 14t40 5.5t51 1t42 11t21 31t10.5 49.5t9.5 66.5q3 37 -15.5 52t-45.5 18t-56.5 -0.5t-48.5 -3.5q-22 -3 -45 -3t-42.5 7.5t-32 26t-12.5 52.5t23 53.5t51 29.5q33 11 75 15z" />
    <glyph glyph-name="eight" unicode="8" 
d="M652 67q14 -31 23.5 -68t6.5 -74t-21.5 -72.5t-60.5 -63.5t-92 -43.5t-98 -16t-89.5 14t-66.5 45.5t-42 56.5t-15 53.5t28.5 62.5t88.5 82.5q62 51 83.5 95t19 78.5t-19 58t-30.5 31.5q-14 11 -38.5 27.5t-44 40.5t-27.5 57t12 78q10 24 25 40.5t33 27.5t38 16.5t40 8.5
q46 5 97 -3q62 -20 98 -49t49.5 -65t5.5 -77.5t-33 -86.5t-27.5 -79t6.5 -63t24.5 -55.5t26.5 -57.5zM465 -159q14 0 28 6.5t24.5 17.5t17 24.5t6.5 27.5q0 45 -23.5 71t-52.5 26q-43 0 -69 -26t-26 -71q0 -28 26 -52t69 -24zM485 347q23 0 42 21.5t19 56.5q0 23 -19 42
t-42 19q-12 0 -23 -5.5t-19.5 -14t-14 -19.5t-5.5 -22q0 -35 19.5 -56.5t42.5 -21.5z" />
    <glyph glyph-name="nine" unicode="9" 
d="M640 510q13 -17 17 -40.5t3 -46.5q-1 -26 -6 -54q-30 -132 -54 -238q-10 -45 -20 -89t-18 -79t-14 -58t-7 -27q0 -8 -2 -24t-10.5 -31.5t-25 -27t-45.5 -8.5q-29 5 -39 23t-11 38q-1 23 7 51q26 85 47 156q9 30 17.5 60.5t15.5 56t12 44.5t6 27q6 16 1 20t-14.5 1
t-19.5 -9.5t-15 -11.5q-8 -5 -34 -16t-59 -12t-67 14.5t-58 62.5q-13 28 -16 52.5t1 46t13.5 39.5t21.5 33q28 34 72 60q68 37 119 45.5t87 1t59 -25.5t36 -34zM440 312q12 0 23.5 5.5t21 16t15.5 25t6 33.5q0 13 -6 25t-15.5 21.5t-21 15t-23.5 5.5t-23.5 -5.5t-21 -15
t-15 -21.5t-5.5 -25q0 -38 20.5 -59t44.5 -21z" />
    <glyph glyph-name="colon" unicode=":" 
d="M431 500q22 -3 40 -11q14 -7 25.5 -21t9.5 -37q0 -93 -75 -93q-19 0 -34 8.5t-25.5 20.5t-16 26t-5.5 26q0 9 3 22t11.5 25.5t24.5 22t42 11.5zM431 179q22 -3 40 -11q14 -7 25.5 -20.5t9.5 -36.5q0 -94 -75 -94q-19 0 -34 9t-25.5 22t-16 27t-5.5 23q0 12 3 26t11.5 26
t24.5 20.5t42 8.5z" />
    <glyph glyph-name="semicolon" unicode=";" 
d="M431 500q22 -3 40 -11q14 -7 25.5 -21t9.5 -37q0 -93 -75 -93q-19 0 -34 8.5t-25.5 20.5t-16 26t-5.5 26q0 9 3 22t11.5 25.5t24.5 22t42 11.5zM422 267q32 -17 56 -43q20 -23 33.5 -57t4.5 -84q-9 -51 -24 -76.5t-30 -35.5t-26.5 -10h-13.5q-3 0 -16 10t-16 28
q0 17 11.5 32t25.5 15q7 1 14.5 7t11.5 13t1 14.5t-17 12.5t-36 11t-41.5 16.5t-31 27.5t-4.5 43q9 27 21.5 42.5t26 23.5t26.5 9.5t24 0.5z" />
    <glyph glyph-name="A" unicode="A" 
d="M779 -35q21 -60 26 -101.5t-7 -68.5t-42 -41.5t-78 -19.5q-49 0 -75.5 24.5t-41.5 63.5t-23 88t-19 98q-7 36 -17.5 44t-23 -2.5t-26 -35t-27 -54t-26.5 -59.5t-24 -52q-11 -33 -29.5 -65.5t-45.5 -55.5t-62.5 -31t-78.5 8q-38 16 -66 46.5t-40 68.5t-5 79.5t39 79.5
q13 19 32 65.5t41 109.5t45 137.5t46 149.5q52 176 110 387q9 32 27 56q15 20 39.5 35t62.5 10q32 -6 54.5 -28t37.5 -53t24 -67t15 -68q3 -18 12.5 -68.5t22 -119.5t28 -149t32 -157t32.5 -144t31 -110zM490 266q16 0 22.5 11t8.5 25q2 16 -2 37l-14 100q3 3 3 7
q0 3 -3.5 5.5t-14.5 2.5t-17 -7t-8 -15q-4 -10 -3 -21v-72q0 -11 0.5 -23.5t3 -23.5t8 -18.5t16.5 -7.5z" />
    <glyph glyph-name="B" unicode="B" 
d="M617 78q58 -34 90 -72t40.5 -76.5t-5 -76.5t-47.5 -72q-22 -26 -56 -43.5t-72.5 -28.5t-79 -16.5t-76 -7t-63 0t-40.5 4.5q-10 3 -29 4t-41 4t-44.5 10t-39.5 22t-25 39.5t-2 63.5q2 29 0.5 85.5t-5.5 129t-10 155.5t-13 165q-16 193 -37 419q0 13 -0.5 27.5t3.5 27.5
t16.5 24t38.5 16.5t68 5t107 -10.5q64 -10 110.5 -35t75.5 -60t40 -76t5.5 -82t-28 -79.5t-61.5 -67.5q-32 -29 -43 -63.5t-5 -71.5t27 -74.5t51.5 -72t69 -65t80.5 -52.5zM282 606q10 0 18 14.5t8 23.5q0 20 -8 30t-18 10q-39 0 -39 -40q0 -9 10 -23.5t29 -14.5zM334 -142
q20 0 29 14.5t9 24.5q0 39 -38 39q-11 0 -18.5 -9.5t-7.5 -29.5q0 -10 7.5 -24.5t18.5 -14.5z" />
    <glyph glyph-name="C" unicode="C" 
d="M724 781q33 -18 57 -42q20 -20 32.5 -49t0.5 -64q-15 -42 -36 -66t-44.5 -35.5t-47.5 -14t-46.5 0t-41 6t-29.5 3.5q-8 4 -21.5 10.5t-31.5 9t-40.5 -2t-47 -21t-51 -49t-53.5 -86.5q-23 -58 -17.5 -101t28.5 -73.5t57 -50t67.5 -31t59.5 -16t34 -4.5t28 -4.5t43 -15
t45 -28t35 -45t12 -65t-24 -87.5q-23 -54 -53.5 -82t-65 -37.5t-70.5 -6t-69.5 13t-62 20.5t-47.5 15q-14 6 -42.5 27t-62.5 55t-70 80t-65.5 102.5t-48.5 121.5t-20 136.5t20.5 149t73.5 158.5q57 78 114.5 126.5t111.5 75t104 34.5t93 4q101 -9 192 -72z" />
    <glyph glyph-name="D" unicode="D" 
d="M203 886q103 11 190.5 -6.5t158 -54.5t124 -90t89.5 -114t54.5 -126t18.5 -126q0 -86 -23.5 -165t-68.5 -146.5t-110 -120.5t-147 -85t-136 -46t-93 -12.5t-69 17t-64 41.5q-35 27 -51 59t-11.5 66t32 68.5t81.5 66.5q54 37 79 75t33.5 78.5t6.5 84t-2 91.5
q0 54 -16.5 85.5t-37.5 47t-40 20t-23 4.5q-10 0 -35.5 2t-55 12.5t-55 34t-35.5 66.5q0 32 9 56.5t23 43t32.5 31t38.5 20.5q45 19 103 22zM541 197q24 -5 43 4.5t31 30t17 48.5t1 60q-12 65 -25 117t-43 84q-19 16 -33.5 20.5t-25.5 1.5t-18.5 -9.5t-12.5 -12.5
q-8 -58 -13 -106q-3 -21 -5 -42t-4 -39.5t-3 -33t-1 -22.5q0 -11 3.5 -28t13.5 -33.5t28 -28t47 -11.5z" />
    <glyph glyph-name="E" unicode="E" 
d="M333 768q38 13 72 25q29 11 59 22t47 19q17 4 47 8.5t60.5 -1t54 -24t28.5 -60.5q0 -46 -15.5 -75t-39.5 -46.5t-54 -27.5t-59 -18q-33 -9 -53.5 -17.5t-33 -25t-20 -46t-15.5 -79.5t1.5 -79t27.5 -43.5t38 -18.5t33 -4t32 -3t36.5 -13.5t30 -30t12.5 -52.5
q0 -29 -18 -52t-44.5 -37.5t-55 -20.5t-49.5 -2t-42.5 6.5t-39 -7t-29 -35t-11.5 -75.5q0 -30 16 -45.5t41.5 -19.5t57 1t62 14t57.5 19.5t44 19.5q21 17 46.5 17.5t47 -14.5t36.5 -43.5t15 -70.5q0 -46 -12 -74.5t-34 -43t-53 -17.5t-68 1q-34 8 -77.5 16.5t-83.5 14.5
q-47 7 -95 13q-59 17 -92 48.5t-49 69.5t-18 79t2.5 76t12 61t10.5 34q0 8 5 41t12.5 79.5t16 102t16 110t12.5 101.5t5 78q0 51 10 79.5t23 43.5q15 17 34 22z" />
    <glyph glyph-name="F" unicode="F" 
d="M392 803q12 4 34 11t51 17t63 21t69 23q31 8 55.5 -2.5t41 -33.5t24 -56.5t3.5 -72.5q0 -26 -10 -42t-26.5 -25.5t-37 -13.5t-41 -6t-39.5 -2.5t-32 -3.5q-15 -4 -30.5 -4t-30 -6t-27.5 -21.5t-25 -50.5q-8 -35 3.5 -55.5t32.5 -31t48 -13.5t50 -3q19 4 31 -4.5t19 -23
t9.5 -32.5t2.5 -33q0 -39 -36 -61t-99 -22q-31 0 -49.5 -7t-30 -17.5t-18.5 -23t-15 -24.5q-3 -10 -7 -34.5t-8.5 -57t-10 -70.5t-10.5 -76t-9 -72.5t-7 -60.5q0 -35 -12.5 -59.5t-33.5 -37t-49 -12t-59 15.5q-31 12 -49 35t-26 50t-6.5 54t9.5 47q5 15 12.5 53.5t16.5 92.5
t19.5 118.5t21.5 133t22 136t21 126.5q7 44 19 78t25.5 58.5t28.5 42t30 28.5q34 26 72 30z" />
    <glyph glyph-name="G" unicode="G" 
d="M383 741q89 48 159 59q30 4 58.5 1t51 -18.5t36.5 -47t14 -82.5q0 -52 -16 -86.5t-41 -55t-57 -30.5t-63.5 -13t-60.5 -2.5t-48 0.5q-33 0 -61 -15t-47.5 -48t-29 -85.5t-5.5 -126.5q0 -52 10.5 -86.5t27 -55t35.5 -30.5t36 -13t29.5 -2.5t15.5 0.5q4 0 14.5 2t21 7.5
t17 14t2.5 20.5t-4 38t11 51.5t37.5 45t76.5 19.5q49 0 78 -14t43 -32.5t18 -37t4 -26.5t3.5 -36t9 -64t11 -74.5t9.5 -67.5t1.5 -56.5t-14 -49.5t-32.5 -35t-54 -13q-33 4 -54.5 12t-35 18.5t-20.5 22.5t-11 24q0 17 -13.5 20.5t-30.5 1.5q-19 -3 -44 -11q-38 -14 -85 -11
t-94.5 22.5t-92.5 56t-80 90t-56 124t-21 158.5q0 66 14.5 123t38.5 106t54.5 89t62.5 72q75 75 171 127z" />
    <glyph glyph-name="H" unicode="H" 
d="M27 618q2 30 19 56q14 22 44.5 42t87.5 25q34 3 55 -8t33 -31t17 -45t5.5 -50.5t-1 -48t-1.5 -36.5q-5 -21 -8.5 -44.5t3 -44t26.5 -34t61 -13.5t56.5 28.5t17 68.5t-6 81t-12.5 67q0 17 -0.5 41t2 50.5t9 53.5t20 50t36 40.5t56.5 24.5q30 10 54 0.5t42.5 -30.5t32 -49
t23 -55.5t15.5 -50.5t9 -33q0 -21 5 -69t14 -109.5t21.5 -129.5t27.5 -129q15 -62 29.5 -121.5t14.5 -110.5t-21 -90.5t-78 -59.5q-37 -10 -65.5 -3.5t-50.5 23.5t-37.5 42t-27.5 51t-20 50.5t-15 41.5q-6 25 -18 49.5t-29 42.5t-36.5 27t-40.5 4q-21 0 -38 -15t-27 -43
t-11.5 -69t8.5 -92q10 -56 9.5 -108t-16 -93t-47 -67.5t-82.5 -31.5q-38 0 -64.5 14.5t-45 38t-29 53t-16.5 60t-7.5 58.5t-1.5 49q2 15 3.5 52.5t2 88.5t0.5 111t-1 120q-2 141 -5 310z" />
    <glyph glyph-name="I" unicode="I" 
d="M177 591q71 -3 138 -3q28 0 58.5 0.5t59.5 2t56 4t48 6.5q39 8 66 -3t44.5 -29t25.5 -38.5t8 -32.5q0 -8 1.5 -30t-4 -46t-23 -44t-56.5 -24q-35 -4 -53.5 -14t-27.5 -21q-11 -12 -12 -27q0 -24 -1 -50q-1 -23 -3 -50t-6 -54q-4 -23 7.5 -41.5t31 -29t42.5 -12t42 10.5
q15 7 42.5 5t54 -14.5t44.5 -36t14 -57.5q-8 -35 -29.5 -57t-49.5 -33.5t-59 -14t-58 1.5q-18 0 -50.5 -1.5t-71 -4t-79.5 -5t-76 -5t-60.5 -4t-33.5 -1.5q-5 0 -18.5 -0.5t-30.5 1.5t-35.5 7t-34 15t-25.5 27t-10 43q0 39 16 62.5t43 35t62.5 12t74.5 -6.5q42 -8 63.5 7.5
t30.5 36.5q11 25 9 59l5 40q2 20 3.5 51t1.5 74q-4 42 -30.5 60.5t-59.5 24t-63.5 4.5t-42.5 3h-25t-34 6.5t-30.5 24t-13.5 52.5q-4 38 13 61t40 34q26 13 61 18z" />
    <glyph glyph-name="J" unicode="J" 
d="M253 740q15 4 37 6t43 3q25 1 51 1h284q27 0 54 -6.5t48.5 -21.5t35.5 -40.5t14 -63.5q0 -75 -31.5 -103t-99.5 -28q-35 -4 -54 -11.5t-28.5 -20t-13 -30t-6.5 -40.5q-8 -19 -6.5 -50t2 -77.5t-3.5 -110t-23 -147.5q-10 -58 -38.5 -96.5t-68 -61t-86 -30.5t-92.5 -4.5
t-88.5 17t-72.5 34.5q-45 34 -69.5 68t-35 66t-10.5 62t4 57q0 53 29 80t82 43q23 3 33.5 -16t14.5 -43q4 -28 3 -64q7 -35 23 -61q14 -23 37.5 -42t61.5 -19q40 0 66.5 21.5t42.5 57t23.5 81t11 93t4.5 93t4 81.5q0 49 -20 73.5t-48.5 35t-60 11t-53.5 0.5q-27 0 -49.5 3
t-39 12.5t-25.5 27.5t-9 48q0 35 19 56t42 34q27 14 62 22z" />
    <glyph glyph-name="K" unicode="K" 
d="M210 651q12 50 24.5 78.5t31 42t44.5 15.5t64 -2q18 -2 29.5 -9t19 -17t10.5 -21.5t4 -23.5q2 -28 -9 -63q-4 -16 -8 -40q-4 -20 -10 -51.5l-14 -73.5q-8 -47 5 -64.5t36 -9t51.5 43t51.5 92.5q18 38 42 60t49.5 32t50 11t44 -3t31.5 -10t12 -9q4 -3 13.5 -8t18 -15.5
t12.5 -29t-3 -49.5q-8 -31 -28.5 -55.5t-47.5 -47.5t-58.5 -47.5t-62.5 -55.5q-18 -21 -19 -46t8.5 -50.5t25.5 -50t32.5 -44t29.5 -32.5l16 -16q2 -5 11 -16.5t17.5 -27t15 -34t3 -38.5t-18.5 -40.5t-49 -38.5q-36 -16 -63.5 -13.5t-47.5 17t-33.5 36.5t-23.5 45.5
t-16.5 45t-11.5 34.5q-15 46 -36.5 59.5t-45.5 13.5q-25 0 -38.5 -55.5t-13.5 -173.5q4 -54 -11 -92.5t-46 -58.5t-77 -21.5t-104 18.5q-36 13 -56.5 37.5t-29 55t-8 64t5.5 65t12.5 57.5t12.5 41q6 12 16 43.5t22 75t25.5 95.5t26.5 104q31 122 66 271z" />
    <glyph glyph-name="L" unicode="L" 
d="M198 645q7 48 28.5 73t47 32t50.5 -1t39 -26q15 -22 21 -54.5t6 -67t-5 -67t-12 -54.5q-4 -26 -8 -54t-11.5 -67.5t-19 -94.5t-29.5 -136q-15 -54 -5 -80t34 -33t58.5 -0.5t68.5 17.5t63.5 22.5t44.5 14.5q18 3 33.5 6t31 2.5t32.5 -7t38 -21.5q19 -14 15 -37.5
t-16.5 -46t-27.5 -40.5t-18 -21q-8 -8 -35 -27.5t-71 -43.5t-103.5 -47.5t-132.5 -38.5q-66 0 -109 12.5t-69 32.5t-38 45t-16 50t-3 47t1 37q-2 9 2 43t12 83t18.5 108.5t22.5 120.5q26 143 62 319z" />
    <glyph glyph-name="M" unicode="M" 
d="M77 599q20 57 43.5 88.5t46 46t42 14t31.5 -8.5q12 -4 23.5 -17.5t22.5 -33.5t21 -46t19 -54q12 -28 25.5 -45t26.5 -26t24.5 -12t19.5 -3q4 0 12 3t19.5 12t25 26t29.5 45q24 49 49.5 71.5t57.5 14.5q40 0 70.5 -26.5t38.5 -90.5q5 -22 16 -56t25 -74t29.5 -83t30.5 -81
t28 -69t21 -47q5 -13 13.5 -36t15 -50t9 -56t-5.5 -54.5t-28 -45t-58 -27.5q-60 -4 -92 10t-48 43t-23 73t-19 101q-17 113 -40 176t-46 71q-25 0 -41 -21.5t-24 -54.5q0 -41 -23 -63.5t-63 -22.5q-25 4 -38 16t-19 26q-7 16 -8 34q-1 24 -7 43q-5 16 -16 29.5t-31 13.5
q-22 2 -39.5 -15.5t-33 -48t-28 -70t-23 -79.5t-20 -78t-17.5 -65q-8 -36 -23 -65t-34.5 -47t-41 -23t-41.5 7q-24 16 -37 37.5t-17 46.5t-0.5 53t11.5 56q6 16 15 47.5t20 72.5t22.5 87.5t23.5 93.5q27 109 58 237z" />
    <glyph glyph-name="N" unicode="N" 
d="M13 463q0 37 7 75.5t21 68.5t35 47t49 12q22 -2 48.5 -23.5t53.5 -53t53.5 -69.5t49 -73.5t39 -65t23.5 -43.5q10 -18 24 -41.5t33 -43t42 -29.5t52 -1q25 8 28.5 39.5t-3 74.5t-16 91t-9.5 90q-3 48 1.5 95t22.5 84.5t51 61t87 23.5q33 3 53.5 -12.5t30.5 -42t12 -60
t-1 -67.5t-8.5 -64.5t-10.5 -49.5q-5 -20 -9 -56t-7.5 -80t-5.5 -91t-3.5 -89t-2 -74.5t-0.5 -46.5q0 -21 2.5 -52t-4.5 -61t-29.5 -52.5t-71.5 -26.5q-31 -3 -57.5 8t-49 30.5t-41.5 44.5t-35.5 51t-30.5 50t-26 41q-14 22 -33.5 45t-41 42t-44 31t-43.5 12
q-9 -3 -14.5 -23.5t-8.5 -50.5t-4 -65t-1.5 -68t0 -60t0.5 -40q2 -18 4 -42t1.5 -49t-5.5 -49t-16.5 -41t-30.5 -25.5t-48 -2.5q-31 6 -51.5 27t-32.5 49.5t-17.5 63t-6.5 68t1 62.5t4 49q0 12 -0.5 38t-1.5 60t-1.5 73t-1.5 78q-2 92 -4 199z" />
    <glyph glyph-name="O" unicode="O" 
d="M727 284q12 -74 -0.5 -147.5t-41 -137t-69 -112t-85.5 -72.5q-27 -16 -59 -32t-66.5 -25t-72.5 -8.5t-77.5 17t-80 52t-80.5 95.5q-31 47 -46.5 97.5t-20 101.5t0.5 100.5t15 93.5q23 104 72 205q4 12 23 42.5t56 60t93 49.5t134 12q81 -9 134 -43.5t87 -88t52.5 -120.5
t31.5 -140zM466 -22q44 61 60.5 121t15.5 112t-14.5 93.5t-29.5 65.5q-17 25 -39.5 36.5t-42.5 16.5q-24 5 -49 3q-37 -9 -61 -41.5t-39 -73.5t-24.5 -82t-17.5 -65q-17 -59 -8.5 -112t40.5 -85q16 -20 38.5 -33t49 -14t57.5 12t64 46z" />
    <glyph glyph-name="P" unicode="P" 
d="M737 515q2 -62 -10.5 -104t-35 -68.5t-52 -40t-59.5 -19.5t-58.5 -6.5t-49.5 -0.5q-28 0 -41 -10t-18 -22q-6 -14 -5 -32q7 -121 -6 -202t-38 -131.5t-57 -75t-62.5 -33t-56 -5.5t-36.5 7q-14 10 -28.5 25t-20 36.5t4 51.5t44.5 71q34 41 47 98.5t15.5 128t0.5 152
t1 171.5q1 44 10.5 78t23 58.5t30.5 42t35 28.5q41 26 93 30q5 0 30.5 1t61.5 -3t76.5 -16t75.5 -37t59 -67t26 -106zM527 442q7 0 12.5 6.5t5.5 19.5q0 8 -5.5 13.5t-12.5 5.5q-14 0 -20.5 -5.5t-6.5 -13.5q0 -26 27 -26z" />
    <glyph glyph-name="Q" unicode="Q" 
d="M798 143q32 -5 39.5 -27t1.5 -50.5t-19 -58t-22 -48.5q-9 -24 -33.5 -39.5t-53.5 -21t-56 0t-41 24.5q-18 13 -35 20.5t-35.5 11t-40 4t-49.5 0.5q-12 -2 -37 -3t-58 3.5t-72 16t-77.5 34t-74 57.5t-63 87t-44 122t-16.5 162q2 90 18.5 157t42 115.5t57.5 81t65 52.5
q77 47 174 46q74 -4 130 -31.5t99 -70t73.5 -95.5t53.5 -108q19 -60 22.5 -116.5t-2.5 -104.5t-19 -86t-26 -61q-14 -28 -12 -43t15.5 -22t38 -8t56.5 -1zM432 537q-35 6 -69.5 -6t-57 -37t-26 -61t23.5 -77q31 -19 59 -27q12 -3 24.5 -4.5t23.5 1t21 9.5t17 21
q13 20 25 48.5t14 56t-9.5 49t-45.5 27.5zM439 175q17 0 24.5 8.5t9 19.5t0 21.5t-1.5 15.5q-6 0 -12 3.5t-13.5 6t-16 1t-18.5 -10.5q-17 -10 -30.5 -9t-23.5 6q-11 5 -20 16q-11 5 -22 3.5t-19 -5.5q-10 -4 -18 -11q-7 -7 -9 -16q-2 -8 2 -17.5t21 -19.5q11 -14 35.5 -18
t49.5 -2q29 2 62 8z" />
    <glyph glyph-name="R" unicode="R" 
d="M663 -19q12 -12 26.5 -31t26 -42t17.5 -48t0.5 -48.5t-24.5 -44.5t-58 -36q-56 -17 -93.5 -8.5t-62 33t-38 60.5t-21 74t-12 72t-10.5 55q-9 27 -17.5 43t-16 24.5t-14 11.5t-11.5 3q-9 0 -12 -8t-3 -19t1.5 -23t1.5 -20q0 -27 9 -84t28 -129q8 -32 8.5 -67.5t-13 -64.5
t-43.5 -46.5t-84 -12.5q-53 9 -77.5 31.5t-30 50.5t3 57t22.5 52q12 14 14.5 56t-1 101t-11 129.5t-17 143.5t-18.5 142.5t-15 125.5q-7 45 -6 80t7.5 63t16.5 48t22 35q27 34 67 48q29 13 64 22q30 8 71 12.5t90 -0.5q54 -8 100 -30t81 -56.5t58.5 -81t32.5 -104.5
t-6.5 -104t-40 -79.5t-49.5 -53.5t-33 -24q-9 -4 -20 -11.5t-22 -21t-22 -34t-20 -50.5q-4 -27 14.5 -55.5t45.5 -54t54 -47t40 -34.5zM460 327q10 0 20 9t18 21.5t12.5 25.5t4.5 22q0 45 -17 64.5t-38 19.5q-38 0 -60 -19.5t-22 -64.5q0 -9 6 -22t16.5 -25.5t25.5 -21.5
t34 -9z" />
    <glyph glyph-name="S" unicode="S" 
d="M604 690q37 -3 67 -21q26 -16 48 -48.5t26 -94.5q0 -51 -16 -77t-40.5 -35t-53.5 -4.5t-56 14t-48 20.5t-29 16q-8 0 -23 3t-31.5 3.5t-30.5 -4t-18 -20.5q-3 -14 3.5 -27t18 -24t25.5 -21.5t25 -20.5q10 -3 36.5 -15.5t59 -34t65.5 -51t58 -68t36 -85t-2 -100.5
q-13 -55 -42.5 -94.5t-67.5 -66.5t-81.5 -42t-84.5 -21t-75.5 -4.5t-54.5 8.5q-30 5 -68 19t-71 41t-54.5 68.5t-18.5 101.5q8 62 38 86t72.5 21.5t93 -25.5t100.5 -54q46 -30 76 -29.5t47 13.5q20 15 30 45q14 36 3 72q-5 15 -15 32t-28 34.5t-45.5 34.5t-67.5 32
q-106 31 -170 66.5t-90.5 75.5t-18 83t46.5 88q19 21 47 36.5t61.5 27t70 19.5t71.5 13q83 12 176 14z" />
    <glyph glyph-name="T" unicode="T" 
d="M218 636q12 0 45.5 1.5t73 2.5t77 0.5t58.5 -4.5q14 0 35.5 1.5t47 1.5t52 -4.5t50 -17t41.5 -34.5t26 -57q13 -54 4 -81.5t-32.5 -38t-59.5 -8.5t-77 7q-24 3 -41 -14.5t-28 -46.5t-17 -65t-8.5 -71.5t-3 -65.5t-0.5 -46t2.5 -48t2 -69t-6.5 -74.5t-22 -66.5t-44.5 -44
t-75.5 -6q-47 5 -68.5 40.5t-26 87.5t3.5 115t20 123.5t24 112.5t15 83q4 22 1 38.5t-9.5 27.5t-17 18t-21.5 10q-26 8 -63 4q-6 3 -18.5 1.5t-28 -2.5t-31.5 0.5t-27.5 10t-17 27t-0.5 51.5q2 22 10.5 38.5t20.5 27.5t27 18t30 11q35 9 78 5z" />
    <glyph glyph-name="U" unicode="U" 
d="M153 663q0 18 10 36t25.5 31t35 19.5t38.5 2.5q45 -7 68 -32t30 -77q3 -17 2.5 -54t-2.5 -82.5t-5 -94t-6 -89l-5 -67.5t-2 -29q0 -3 -4 -20.5t-7.5 -42t-4 -53.5t6 -54.5t22 -44.5t45.5 -24q37 -3 55 21t23 63.5t-1.5 89t-17.5 99t-24.5 93.5t-23.5 71q-15 41 -22.5 85
t0.5 83t36 68.5t84 41.5q40 7 66.5 -3.5t43 -31t25 -47.5t11.5 -52.5t3 -46v-28.5q0 -7 1 -34t2.5 -65.5t3.5 -85t4 -92.5t4.5 -88t4.5 -72q3 -32 -2.5 -69t-19.5 -72.5t-38 -68t-59 -55.5t-82 -35t-106 -7t-101.5 22t-71 41t-45 52.5t-24 56.5t-8.5 53t1 42q2 13 4.5 47.5
t5 82.5t5.5 105t5 114z" />
    <glyph glyph-name="V" unicode="V" 
d="M204 581q4 -8 9 -18.5t10 -21.5q5 -12 11 -25q28 -54 52 -102l20 -42t19 -40.5t16 -36t11 -26.5q23 -32 39.5 -35t39.5 14q11 8 21 33t20 59.5t21.5 74.5t26.5 78q11 33 26 63t35.5 50t46.5 27t59 -6q25 -6 39 -21.5t20 -37t6 -46.5t-4 -49t-10 -45.5t-11 -35.5
q-5 -11 -14.5 -34.5t-21.5 -54t-26.5 -65t-29.5 -68t-29 -63t-26 -48.5q-15 -30 -35 -61.5t-43.5 -57.5t-49 -43t-51.5 -17q-30 0 -52.5 9.5t-39 24t-28 32t-18.5 34.5q-5 8 -19 36.5t-33.5 68t-41.5 85t-42.5 88.5t-36.5 79t-23 55q-15 34 -21 60t-2 47.5t16.5 41
t35.5 40.5q22 21 41.5 23.5t34.5 -2.5q18 -6 32 -21z" />
    <glyph glyph-name="W" unicode="W" 
d="M76 611q58 -5 93.5 -22t55 -41t25.5 -52t6 -54.5t-3.5 -49t-3.5 -35.5q0 -20 -4 -42.5t-5.5 -49t4 -57t25.5 -64.5q10 -24 18.5 -26t17 8t17 28.5t18.5 36t22 31t28 13.5q23 -3 37 -23t26.5 -42t27.5 -40t42 -18q31 0 42.5 25t13 60.5t-2 74t-3.5 65.5q0 18 3 42.5
t10.5 50.5t20 50.5t32 41t46 22t61.5 -4.5q38 -7 59 -28t29 -49.5t6 -60.5t-9 -61t-16.5 -52t-16.5 -33q-8 -13 -21.5 -35t-30 -48.5t-34 -55.5t-33.5 -56t-27.5 -50.5t-16.5 -38.5q-11 -20 -24.5 -36.5t-28 -28t-29.5 -16.5t-30 0q-31 0 -42 19.5t-19 49.5q-30 62 -62 62
q-8 4 -15 -2.5t-13.5 -17t-12 -22.5t-8.5 -20q0 -4 -2.5 -12.5t-11.5 -17.5t-25 -17.5t-43 -11.5q-27 0 -48 15t-36.5 36.5t-25 46t-13.5 42.5q-8 16 -20.5 58.5t-29.5 99t-37.5 120t-43.5 120.5q-14 30 -18.5 54t-2.5 42t8.5 30.5t15.5 21.5q21 20 58 25z" />
    <glyph glyph-name="X" unicode="X" 
d="M142 543q37 28 66 36.5t50.5 4.5t37 -17t25.5 -28.5t16 -30t8 -20.5q0 -14 2.5 -30.5t10.5 -30.5t22.5 -23.5t39.5 -9.5q24 0 39 13.5t23.5 30.5t13 34t7.5 25q2 4 7.5 18.5t15 32.5t22.5 36t31 30t40.5 14.5t50.5 -11.5q42 -24 50.5 -54t-1 -58.5t-30 -53t-37.5 -38.5
q-21 -17 -37 -32t-27.5 -32.5t-18.5 -39.5t-11 -53q-3 -28 10 -49.5t32 -37t39 -26t31 -17.5q10 -3 23.5 -16t21.5 -31t6 -39.5t-23 -42.5q-17 -24 -38.5 -32.5t-41.5 -7t-36.5 10.5t-23.5 20q-20 20 -44.5 35t-65.5 29q-24 3 -45 -10t-36.5 -32t-25.5 -39t-13 -30
t-23.5 -26t-47.5 -24.5t-55.5 -4t-49.5 36.5q-21 34 -19 66t16 57t33.5 41.5t33.5 19.5q17 7 35.5 15t34.5 21t27.5 33t14.5 51q0 28 -20.5 51t-53 42t-72 35t-77.5 30q-19 9 -27.5 20t-9.5 24t4 26t13 26q19 30 57 62z" />
    <glyph glyph-name="Y" unicode="Y" 
d="M296 563q8 -11 18 -32.5t23 -42.5t30 -35t39 -11q23 0 42 12.5t36 33.5t32.5 48.5t30.5 57.5t41.5 51t54 29.5t51.5 1.5t35 -33t12 -62t-11 -77t-39 -83t-72 -80q-30 -25 -45.5 -53.5t-21 -57.5t-3 -57t8 -52t11.5 -42.5t9 -28.5q0 -7 3 -24t4 -38.5t-2 -44t-15.5 -41.5
t-36.5 -31t-64 -12q-43 0 -67.5 10.5t-36.5 29.5t-13.5 45.5t1.5 59t8.5 69.5t8.5 78q2 42 -11.5 77.5t-37 64.5t-54 51.5t-61.5 39.5t-60 29t-49 20q-34 15 -49 36.5t-10.5 45t29.5 47t70 41.5q22 11 41 15.5t35 4t28.5 -5t21.5 -11.5q22 -16 35 -43z" />
    <glyph glyph-name="Z" unicode="Z" 
d="M150 594q27 9 59.5 14.5t67.5 8.5t71.5 3.5t69.5 0.5q78 -1 160 -8q0 -3 16.5 -5t37 -8t39 -20.5t21.5 -42.5q2 -19 -7 -42t-25.5 -48t-37.5 -49.5t-43 -47t-42.5 -41t-34.5 -30.5q-22 -21 -48 -41t-48.5 -39.5t-36 -39.5t-9.5 -41q6 -18 34.5 -23t63 -3t68.5 7.5t52 9.5
q18 3 39.5 4t40.5 -5.5t31.5 -22t12.5 -43.5q0 -29 -9.5 -50t-25 -35.5t-34 -21.5t-36.5 -7q-12 0 -47.5 -6t-82.5 -11.5t-101 -9t-102.5 2t-87 22t-55.5 49.5q-14 33 -2 74t39 82.5t63 80.5t69.5 70.5t58 51t28.5 22.5q7 7 17 14.5t17 15.5t9.5 16.5t-4.5 19.5t-28 12
t-49 -3.5t-58 -12.5t-55 -15q-25 -11 -50.5 -15t-47 3.5t-36.5 28.5t-19 60q-8 39 3 62t28 34q19 13 46 18z" />
    <glyph glyph-name="backslash" unicode="\" 
d="M316 586q83 -136 152 -246q29 -47 58 -93t53.5 -84t42 -64.5t23.5 -33.5q12 -14 22.5 -34t16 -42t3.5 -43.5t-16 -37.5q-12 -17 -27 -27t-31.5 -9t-32.5 15.5t-31 45.5q-7 14 -23.5 43t-39 66.5t-49 81.5t-54 88t-53.5 85t-47.5 74t-36.5 54.5t-20 26.5q-7 12 -17.5 36.5
t-16 50.5t-1 48.5t28.5 30.5q24 9 42 5t30 -12q14 -10 24 -25z" />
    <glyph glyph-name="a" unicode="a" 
d="M647 584q21 -11 36 -22t22.5 -26.5t7 -36.5t-10.5 -52q-11 -31 -18 -79.5t-9 -102t1 -107t13 -95.5q10 -72 4.5 -111t-46.5 -39q-26 -5 -46.5 -6.5t-35.5 5t-25 23t-15 47.5q-11 30 -20.5 35.5t-17.5 -1t-12.5 -18.5t-4.5 -16q-4 -4 -18 -17t-36.5 -29t-51 -31.5
t-60.5 -23.5t-67 -5t-69 24q-34 17 -54.5 47t-31 66.5t-13.5 76t-2.5 75t3 63.5t2.5 42t7.5 51.5t26 82t48.5 87t75.5 65.5t108 17.5t144.5 -56.5q8 -15 16 -21q7 -5 14.5 -3t12.5 24q5 15 17 31t28.5 28t36.5 15.5t40 -7.5zM405 108q43 0 61 19.5t22 51t0 70.5t-4 79
q0 29 -12.5 38t-27.5 10q-18 0 -39 -8q-22 -21 -41 -45q-17 -20 -35 -46.5t-30 -54.5q-16 -30 -12 -57t21.5 -45t43.5 -22.5t53 10.5z" />
    <glyph glyph-name="b" unicode="b" 
d="M604 214q23 -9 42.5 -27t32 -42t16 -53t-5.5 -61q-3 -22 -15 -51t-31.5 -60t-46 -61.5t-59.5 -54.5t-71.5 -39t-81.5 -15q-87 9 -137 47t-73 89.5t-23 109.5t14 108q9 23 17.5 59t16 79t14 90t12.5 93q13 107 25 229q5 22 17 53.5t33.5 57.5t54 41t78.5 6
q33 -9 49.5 -30.5t20.5 -52t-3 -67.5t-19 -77.5t-28.5 -82t-31.5 -81.5q-18 -37 -16 -64.5t17.5 -48.5t40 -36t51 -26t51 -18.5t39.5 -13.5zM480 -23q0 14 4.5 28.5t4.5 29.5t-10 29.5t-40 28.5q-30 0 -59 -5t-58 -33q-9 -23 -9 -44q0 -18 9.5 -38.5t38.5 -34.5t51.5 -10
t37.5 15q18 12 30 34z" />
    <glyph glyph-name="c" unicode="c" 
d="M521 567q40 -14 73 -37q27 -20 50 -50t23 -74q0 -33 -11 -54t-28.5 -33.5t-39 -16.5t-42.5 -3t-39.5 6.5t-29.5 13.5q-17 5 -35 11.5t-34.5 5t-29.5 -14.5t-18 -46q-11 -66 31 -99t130 -33q44 0 65.5 -14.5t29.5 -35t7.5 -43t-0.5 -38.5q0 -11 -12 -32.5t-41 -41
t-76.5 -30t-119.5 0.5q-71 11 -124.5 57t-82 114.5t-29.5 153t32 172.5q16 44 39.5 74t51.5 49.5t58 30t59 14.5q68 10 143 -7z" />
    <glyph glyph-name="d" unicode="d" 
d="M238 214q15 6 39.5 13.5t51 18.5t51 26t40 36t17.5 48.5t-16 64.5q-15 40 -31.5 81.5t-29 82t-19 77.5t-2.5 67.5t20 52t50 30.5q46 9 78.5 -6t54 -41t33.5 -57.5t17 -53.5q11 -122 24 -229q6 -46 12.5 -93t14.5 -90t16.5 -79t17.5 -59q14 -50 14 -108t-23 -109.5
t-73 -89.5t-137 -47q-43 0 -81.5 15t-71.5 39t-59.5 54.5t-46 61.5t-31.5 60t-15 51q-9 32 -5.5 61t16 53t32 42t42.5 27zM362 -23q12 -22 30 -34q15 -11 37.5 -15t51.5 10t38.5 34.5t9.5 38.5q0 21 -9 44q-29 28 -58 33t-59 5q-30 -14 -40 -28.5t-10 -29.5t4.5 -29.5
t4.5 -28.5z" />
    <glyph glyph-name="e" unicode="e" 
d="M568 59q-39 6 -62.5 3.5t-35 -10.5t-12.5 -22t5 -31t21 -21t33 -1t36 10t29 12q6 6 23 9.5t35.5 -5t32.5 -33.5t14 -76q0 -25 -25 -48.5t-65.5 -38.5t-91.5 -19.5t-102.5 7.5t-100 43.5t-83 87.5t-51 140.5t-5.5 202.5q16 84 54 148q16 27 38.5 53t52.5 45.5t68.5 30
t86.5 7.5q95 -5 153.5 -33.5t91 -69t43.5 -88.5t11 -93t-15.5 -83t-42 -66.5t-62 -44.5t-74.5 -16zM520 329q-16 0 -32 -7.5t-29 -20.5t-21 -29t-8 -33q14 -13 29 -23q13 -8 29 -15t32 -7h48q17 0 25.5 7t13.5 15q5 10 6 23q0 17 -0.5 33t-5 29t-13.5 20.5t-26 7.5h-48z" />
    <glyph glyph-name="f" unicode="f" 
d="M278 556q0 58 21 97.5t58.5 59.5t90 19.5t114.5 -22.5q38 -15 65.5 -41t44.5 -57.5t25 -66t8.5 -65t-6 -54.5t-18.5 -36q-18 -13 -39.5 -18.5t-40 1t-33 28t-18.5 61.5q0 44 -15 60t-34 14t-36.5 -17t-21.5 -33t-7.5 -39t-1 -39t12.5 -29.5t32 -11.5q27 0 41 -10
t21 -24.5t8 -31t1 -29.5t-3 -22t-11.5 -14.5t-25 -8t-43.5 -2.5t-43.5 -15t-25.5 -42t-12 -64t-3 -81q0 -30 2 -65t2.5 -70t-2.5 -67t-13.5 -55t-30 -34.5t-52.5 -5.5q-29 3 -43.5 29t-18 65.5t1 87t11.5 92.5t15 82.5t11 58.5q4 36 -7 55.5t-27.5 27t-34 6.5t-26.5 -5
q-14 0 -34 -0.5t-39 6t-32.5 24t-13.5 52.5q0 31 12.5 48t35 24.5t53 9t65.5 1.5q18 -2 30 4t19.5 17t11.5 26.5t5 31.5q3 38 -6 87z" />
    <glyph glyph-name="g" unicode="g" 
d="M717 60q2 -79 -13 -132.5t-43.5 -87.5t-66.5 -52.5t-81.5 -27.5t-89 -11.5t-87.5 -4.5q-40 -3 -78 7.5t-69.5 30t-53.5 46.5t-28.5 57t4.5 61.5t45 60.5q34 27 59 32t46 -3.5t40 -26t42 -36t51.5 -33t68.5 -17.5q60 -4 88.5 16.5t38.5 53.5t7 71.5t-7 70.5t-20 43.5
t-39 10.5t-49 -11t-50 -22q-16 -11 -47.5 -20t-68 -10.5t-74 8t-66.5 35t-44 71t-7 117.5q4 55 19 92.5t37.5 61.5t49.5 36t55 16q65 10 146 -16q35 -16 51.5 -13t21.5 13q6 11 1 32q-2 24 2 42q4 16 15 29t35 13q44 0 66 -15t31 -33q11 -21 9 -47zM383 291q19 0 36 19.5
t17 61.5q0 19 -17 36t-36 17q-40 0 -60.5 -17t-20.5 -36q0 -81 81 -81z" />
    <glyph glyph-name="h" unicode="h" 
d="M337 657q25 0 40.5 -9t24.5 -22.5t12.5 -29.5t4 -30t-0.5 -25t-1 -13q0 -3 -1.5 -21.5t-3.5 -45.5t-4.5 -58.5t-4.5 -59t-3.5 -48t-1.5 -25.5q-4 -4 -7.5 -12t-3.5 -15.5t4.5 -12t15.5 -0.5q26 15 44.5 15t30.5 -7.5t18 -19t6 -18.5q4 -3 10 -20t15 -40.5t22.5 -50
t32.5 -48.5q15 -15 30.5 -37t28 -46.5t19.5 -50t5.5 -47t-14 -37t-39.5 -20.5q-41 -11 -65 0.5t-37 34t-18 49.5t-9 45q-4 19 -8.5 40t-12 40t-19.5 32.5t-30 17.5q-15 2 -24.5 -9t-15 -29t-8 -41t-3 -43.5t0 -36t0.5 -20.5t0.5 -19.5t-1.5 -32.5t-6.5 -37.5t-14.5 -34.5
t-26 -23t-41 -3q-32 3 -48 26t-21 58t-1.5 78t11 86.5t16 82.5t13.5 66q15 75 12.5 160.5t-31.5 197.5q-8 28 -7 50t7 39t16.5 29.5t22.5 21.5q28 21 69 29z" />
    <glyph glyph-name="i" unicode="i" 
d="M369 378q-16 -12 -29 -30q-11 -16 -21.5 -40t-13.5 -59q0 -31 -6 -70.5t-13.5 -78t-15.5 -72.5t-11 -55q-7 -21 -8 -49.5t8.5 -54.5t31.5 -44t60 -18t61.5 17t36.5 43t17.5 56.5t4.5 58.5q0 13 -0.5 34t-1.5 45.5t-1.5 51.5t-1.5 53q-3 61 -5 129q-7 40 -19 66
q-11 22 -28.5 31.5t-44.5 -14.5zM314 590q3 10 10 21q6 8 17 17.5t28 16.5t35 7t33 -7t24.5 -20.5t9.5 -34.5q0 -24 -1.5 -45.5t-9 -38t-25 -26t-48.5 -9.5q-27 0 -43.5 11t-24 28t-8 38t2.5 42z" />
    <glyph glyph-name="j" unicode="j" 
d="M490 439q-16 1 -28 -9q-11 -9 -19.5 -30t-8.5 -63q2 -28 6 -75t6 -101t0.5 -109.5t-9.5 -100t-24.5 -73t-44.5 -28.5q-39 -4 -58 7.5t-27 28.5t-8 33.5v23.5q0 3 0.5 14t-2 22t-10.5 20t-26 9q-18 4 -35.5 0t-30 -18t-16 -39t7.5 -64q10 -39 26 -71.5t40.5 -56t58.5 -37
t80 -13.5t82.5 11t62 35.5t39 64t13.5 95.5q0 30 0.5 66t1 75.5t1 79.5t1.5 78q2 88 5 179q1 16 -7 27q-7 10 -24.5 16.5t-52.5 2.5zM406 627q4 10 11 21q6 9 17 18.5t28 17.5q18 7 36 7t33 -7t24.5 -21.5t9.5 -35.5q0 -25 -1.5 -47t-9.5 -38.5t-25 -26.5t-49 -10
q-28 0 -44 11t-24 29t-8.5 39.5t2.5 42.5z" />
    <glyph glyph-name="k" unicode="k" 
d="M318 565q4 23 9 43.5t15.5 36t29 24.5t49.5 9q23 0 34.5 -14t14 -37.5t-1 -54t-10 -62.5t-14.5 -63t-13 -57q-3 -26 1.5 -37.5t13 -13.5t19 3t20.5 12.5t18 15t11 10.5q7 0 24.5 11.5t38 19t39.5 4t31 -34.5q12 -47 0 -76.5t-32 -47t-41.5 -24t-29.5 -6.5q-4 0 -17 -4
t-27.5 -13t-26 -22.5t-11.5 -32.5q0 -20 14 -45.5t35 -52.5t46.5 -53t48.5 -45q23 -15 36 -40t13 -51t-14 -49t-45 -34q-35 -8 -56 11t-36.5 49t-29 62.5t-32.5 51.5q-16 15 -24 10.5t-12 -15.5q-4 -13 -5 -36l-6 -34q-2 -14 -3.5 -30.5t-1.5 -27.5q0 -8 3 -25t-0.5 -33.5
t-19.5 -27.5t-55 -7q-31 0 -47.5 15.5t-23 39.5t-6 53t4 56.5t7.5 50t4 32.5q2 7 5.5 36.5t8 72t10 94.5t10.5 105q12 124 27 278z" />
    <glyph glyph-name="l" unicode="l" 
d="M322 521q0 8 1 26t8.5 35.5t23 29.5t44.5 8q22 -5 36.5 -24t24 -45t14 -57t6 -60.5t0 -56t-4.5 -42.5q0 -11 0.5 -37t1 -62t1.5 -78t2 -85q3 -100 6 -220q8 -40 4 -71q-3 -27 -18 -49t-52 -22q-23 -2 -39 2.5t-27 13t-18 20.5t-10 25q-9 30 -4 70v679v0z" />
    <glyph glyph-name="m" unicode="m" 
d="M-5 402q0 16 9.5 31t23.5 24t31.5 10t34.5 -11q20 -12 35 -13.5t24 1.5q11 4 18 12q28 29 57 44q25 13 53.5 12.5t53.5 -32.5q25 -36 41.5 -54t29 -24t23.5 -2.5t24.5 10t31.5 14t46 9.5q46 4 80.5 -11.5t59 -42t38.5 -59t19 -60.5q0 -25 2 -45t7.5 -48t13.5 -70t20 -111
q0 -29 2 -58.5t-4 -53t-25 -38t-60 -14.5q-33 0 -52.5 16.5t-30.5 44t-14.5 61.5t-4 69.5t1.5 68.5t2 58q9 65 -6.5 99t-48.5 42q-16 4 -28 -3t-18 -20.5t-6 -31t9 -33.5q4 -20 3.5 -41t-9 -38.5t-26 -29t-46.5 -11.5q-24 4 -37.5 24t-19.5 42.5t-7 42t-1 24.5q0 4 -0.5 13
t-3.5 18t-9.5 16t-18.5 7q-13 4 -22.5 -5.5t-17.5 -23.5q-9 -16 -15 -38q-3 -38 -7 -75q-3 -32 -7.5 -67.5t-8.5 -64.5t-7 -53t-10 -39.5t-20.5 -20.5t-37.5 4q-29 4 -41.5 21.5t-15.5 37.5q-4 23 2 50q6 43 11 82q5 33 8.5 65.5t3.5 48.5q0 21 -1 42.5t-7.5 39t-20 28.5
t-38.5 11q-25 5 -38.5 21t-19.5 33q-7 20 -8 45z" />
    <glyph glyph-name="n" unicode="n" 
d="M115 452q13 24 27 38q12 12 27.5 17t32.5 -11q16 -12 29 -13.5t22.5 2.5t16 11t10.5 11q4 0 13 13.5t26.5 30t45 30t68.5 13.5q44 -3 73 -17t47.5 -34.5t27.5 -44.5t12.5 -46.5t3.5 -40.5v-26q0 -12 5 -44.5t16.5 -73.5t30.5 -85t48 -81q28 -33 30 -68.5t-15.5 -64
t-50.5 -47t-75 -18.5q-27 0 -44 25.5t-27 63.5t-14 83.5t-4.5 86t0.5 69t1 34.5q0 12 -2.5 32.5t-9.5 40t-19.5 33.5t-33.5 14t-32 -14t-16 -31t-6 -33t-1 -20q4 -4 6 -31t2 -62t-2 -70.5t-6 -56.5q0 -25 3.5 -53.5t-0.5 -52t-21 -37.5t-58 -10q-30 5 -48 25t-26 47.5
t-9 59.5t1.5 63t7 58t7.5 43q0 50 -17.5 93t-59.5 60q-25 8 -34.5 23t-11.5 30q-3 17 3 36z" />
    <glyph glyph-name="o" unicode="o" 
d="M541 532q53 -17 86 -47.5t50.5 -68t22.5 -78t3.5 -77t-7 -65.5t-8.5 -42q-4 -17 -16.5 -44t-35 -55.5t-55.5 -53.5t-76.5 -39t-98.5 -11.5t-122 29.5q-48 20 -79 50t-48.5 66t-24 75.5t-6.5 77.5q1 89 35 189q21 35 50.5 63.5t74 43.5t106.5 13.5t149 -26.5zM580 154
q0 7 1.5 23t1.5 36t-3 42.5t-12 42.5t-25.5 36t-43.5 23q-45 15 -78.5 16t-57.5 -8t-40 -25.5t-26 -36.5q-18 -53 -18 -101q0 -20 3.5 -41t13.5 -40t26 -34.5t42 -25.5q56 -21 96.5 -13t67 28.5t39.5 44t13 33.5z" />
    <glyph glyph-name="p" unicode="p" 
d="M679 395q4 -27 -3.5 -50.5t-23 -42.5t-36.5 -31.5t-43 -16.5q-11 -6 -32 -11t-45 -11.5t-47.5 -17.5t-40.5 -28.5t-24.5 -43.5t1.5 -64q9 -35 19 -73.5t17.5 -75.5t10 -70.5t-3 -59.5t-21.5 -42.5t-45 -19.5q-44 -5 -73.5 12t-47 43.5t-24.5 57t-7 52.5q3 109 4 208
q0 42 0.5 85t0 83t-1.5 73.5t-3 55.5q-9 44 -3.5 95.5t32 94.5t76 69.5t129.5 22.5q57 -9 101 -44.5t74 -80.5t45 -91.5t15 -77.5zM487 370q18 0 28 15t15 33q5 21 6 48q0 15 -1.5 31t-10.5 29t-29 21.5t-57 8.5q-36 -19 -55.5 -42.5t-28.5 -44.5q-11 -25 -12 -50
q18 -18 29.5 -28t25 -14.5t34 -5.5t56.5 -1z" />
    <glyph glyph-name="q" unicode="q" 
d="M618 -107q30 8 51 5t34 -14.5t17 -29t0 -38.5q-4 -26 -14.5 -49.5t-33.5 -36t-62.5 -10.5t-102.5 28q-40 17 -63 54t-34.5 83t-13.5 97.5t0 96.5t5.5 80t3.5 49q0 21 -3.5 29t-7.5 10q-5 2 -11 -4q-59 -9 -99 2t-65 32.5t-38 50t-18.5 55t-5.5 47v26.5t1 24t6.5 42
t17.5 50t34.5 48t57 36.5t84.5 14.5q40 0 69.5 -11t50 -28.5t33 -40t19.5 -45.5q16 -55 10 -125q-3 -87 -7 -162q-2 -32 -3.5 -65t-3.5 -62t-4 -53t-4 -38q0 -30 6.5 -60t19 -52.5t31.5 -33t43 -2.5zM434 418q8 18 8 33q0 13 -8 23.5t-34 10.5q-25 13 -39.5 14.5t-24.5 -1.5
t-20 -8t-26 -5q-8 -30 -7 -56q1 -23 11 -46t39 -36q51 0 76 21.5t25 49.5z" />
    <glyph glyph-name="r" unicode="r" 
d="M135 463q11 34 28.5 53.5t38 28.5t41.5 9.5t38.5 -4t30 -12t16.5 -14.5q6 -17 14 -23.5t16.5 -6.5t16.5 4.5t14 10.5t18 23t33 38t52.5 41.5t76.5 31.5q45 6 79 -13.5t56.5 -50t34 -67t11.5 -64.5q0 -23 -6 -42t-18.5 -31.5t-33 -17.5t-48.5 0q-23 6 -42.5 -0.5
t-35 -19.5t-26.5 -28t-17 -27q-11 -16 -12.5 -51.5t1.5 -76.5t7 -80t4 -62q0 -17 -1.5 -40t-11.5 -44t-31 -35.5t-60 -14.5t-58 15t-25 37.5t-2 48.5t10 48q0 17 2 51t3.5 72t1 74t-6.5 58q-11 28 -21 41t-25.5 17.5t-40 3.5t-63.5 -1q-34 -6 -47.5 12t-15.5 42q-4 28 4 66z
" />
    <glyph glyph-name="s" unicode="s" 
d="M261 564q32 42 66.5 61t69 23.5t69 0t67.5 -8.5q33 -5 50 -29.5t20.5 -56t-5.5 -63.5t-28 -51q-23 -18 -36.5 -16.5t-26.5 8.5t-29 12.5t-44 -4.5q-23 -5 -24 -14.5t7 -20.5q10 -12 29 -26q32 -19 62 -46q26 -23 53.5 -57.5t46.5 -81.5q28 -89 16 -152.5t-45.5 -106.5
t-80.5 -67.5t-89 -33.5q-37 -9 -84 -6t-89 23t-70.5 58t-28.5 98q0 61 24 94.5t58 44t69.5 -0.5t58.5 -39q19 -23 41 -27.5t41 -1.5q22 4 43 16q21 22 21 47q0 10 -5 22.5t-17 25.5t-33 27t-53 28q-49 16 -80.5 38.5t-49.5 48t-24.5 53t-5.5 53.5q2 61 36 128z" />
    <glyph glyph-name="t" unicode="t" 
d="M335 610q-1 21 6 36q6 13 22 21t48 1q28 -8 37 -29t8 -47.5t-7.5 -54.5t-10.5 -49q0 -18 1.5 -29.5t9.5 -16t25 -0.5t49 18q35 11 52.5 3.5t25.5 -21.5q8 -16 7 -39v-83q0 -35 -30.5 -43.5t-72.5 5.5q-18 7 -29 -6t-17 -34.5t-8.5 -45t-2.5 -37.5t6.5 -29t18 -27
t26.5 -20t33 -8q35 0 55.5 -20t20.5 -56q0 -21 -14 -42t-40.5 -36t-65 -20.5t-87.5 4.5q-33 7 -50.5 30t-24.5 54t-6 67.5t6 70.5t10.5 63t8.5 45q0 24 -8 37t-21.5 18.5t-30 4.5t-34.5 -4q-14 0 -31 -1.5t-33 3t-29.5 18.5t-20.5 45q-7 28 2.5 46.5t30 28t49 11.5t59.5 -1
q16 -2 26.5 4.5t17.5 18t10.5 27t5.5 31.5q4 38 -3 88z" />
    <glyph glyph-name="u" unicode="u" 
d="M227 600q35 6 55.5 -13t31.5 -54t14.5 -79.5t3 -89t-3 -83t-2.5 -60.5q0 -32 3 -58t13 -44t27 -27.5t46 -9.5q19 0 29.5 19t14.5 49.5t4 68t-2 74t-4.5 68.5t-2.5 51q0 33 2.5 65t10.5 57t22.5 40.5t38.5 15.5t43 -11t31.5 -26.5t19.5 -33.5t7 -32q0 -10 3 -36t7.5 -62
t9.5 -77t9.5 -80t7.5 -72t3 -52q0 -28 5.5 -40t12.5 -20t12.5 -18t5.5 -33q-5 -25 -20 -38.5t-32.5 -19.5t-34.5 -7t-26 -1q-6 3 -9.5 7t-8.5 6t-13.5 1.5t-26.5 -5.5t-46.5 -16t-72.5 -30t-83 -19t-70.5 13.5t-56 37.5t-40.5 54.5t-23 63.5t-4 64v317q0 75 13.5 112
t30.5 51q19 17 45 12z" />
    <glyph glyph-name="v" unicode="v" 
d="M122 384q-37 36 -43.5 73t10.5 67t54 48.5t87 18.5q46 4 70 -12.5t37.5 -47.5t23 -72.5t27.5 -87.5q23 -45 41 -54t32 1.5t23 31t14 34.5q0 6 0.5 21.5t4.5 34.5t12 39t23 34t37.5 19.5t56.5 -3.5q36 -9 56.5 -26t29 -38t8 -44.5t-6 -44.5t-14 -38t-14.5 -26
q-4 -14 -9 -39t-15.5 -58t-27.5 -73.5t-44 -86.5q-23 -45 -53.5 -53t-61 7t-58.5 45.5t-47 61.5q-9 16 -25 35.5t-35.5 41.5t-41.5 44.5t-43 43.5q-50 49 -108 103z" />
    <glyph glyph-name="w" unicode="w" 
d="M34 445q-4 11 3 29.5t21.5 38.5t35 39.5t44 34.5t48 22.5t47.5 3.5q28 -11 51 -25.5t37 -35t19.5 -47t-0.5 -60.5q-4 -23 -18 -41t-33 -33t-40.5 -27t-41 -23t-33.5 -22t-18 -22q-8 -12 -12 -28t-3.5 -31t8 -25t24 -10t42.5 14.5t64 48.5q39 38 69 53t54.5 13.5t45 -15
t40 -31t39.5 -36t43 -29.5q34 -18 54 -9.5t25.5 31.5t-3 54.5t-31.5 60.5t-31 64t-1 66.5t30 54.5t63 29q35 6 61 -4t45 -30t30.5 -47.5t17.5 -55.5q6 -29 25 -62.5t38 -69.5t30 -72.5t-1 -70.5q-31 -61 -64.5 -94t-68.5 -45t-70 -7.5t-67 18t-61 32t-52 33.5q-35 24 -64 28
t-54.5 -6t-49 -32t-46.5 -51q-29 -29 -56.5 -43t-60.5 -12.5t-75 19t-99 52.5q-29 17 -44 44t-20.5 59t-2.5 67.5t10 70.5q17 81 57 172z" />
    <glyph glyph-name="x" unicode="x" 
d="M127 458q15 34 42.5 51t60.5 15.5t68 -21t64 -58.5q16 -26 34 -34t36.5 -4.5t36 16t32.5 27t26.5 28t18.5 19.5q9 10 30 30t47.5 31t57 3.5t59.5 -51.5q10 -54 -3 -83t-33.5 -43.5t-41.5 -19.5t-26 -10q-5 0 -17.5 -1t-27.5 -8.5t-28 -23.5t-17 -46q-5 -25 3 -42
t22.5 -28t32 -16t32.5 -5q15 -5 34.5 -17t34.5 -30.5t20 -42.5t-10 -54q-30 -34 -55 -42t-48.5 -1.5t-46 20.5t-46.5 23q-24 15 -48.5 14t-47.5 -13.5t-45 -33.5t-41 -45q-15 -24 -36.5 -40.5t-46 -21.5t-50.5 3t-51 32q-24 25 -23.5 55t17.5 58t47 51t64 33q34 5 50.5 26.5
t13 48.5t-28.5 53t-74 41q-25 7 -42 17.5t-28 23t-16.5 26t-8.5 26.5q-6 30 3 64z" />
    <glyph glyph-name="y" unicode="y" 
d="M63 431q-5 10 -8 31t4.5 44t30 43.5t67.5 30.5q37 10 63 4.5t44 -20.5t28.5 -36.5t16 -44.5t7 -44t1.5 -34q-5 -20 -4.5 -37t9.5 -28t27.5 -15.5t48.5 0.5q30 -5 40 8t9 34t-9 46.5t-13 45.5q-10 15 -15.5 42t0.5 55t28.5 50t67.5 27q37 -3 64.5 -18.5t46.5 -38t30.5 -49
t17 -52t5.5 -47.5t-3 -35q-3 -14 -3 -24t2 -23.5t6.5 -32t10 -48.5t11.5 -74t13 -108q10 -90 -2 -148t-36 -94.5t-54 -57t-55 -35.5q-20 -7 -47 -13t-56 -7t-57.5 3.5t-51.5 18.5t-39 39.5t-19 66.5q-5 55 16 80.5t50 32.5t57.5 2.5t38.5 -9.5q11 -11 35.5 -7.5t44.5 33.5
q10 4 19 19.5t11 36.5t-6 44.5t-30.5 43t-63 32.5t-104.5 13q-45 0 -82 11t-66 28.5t-51.5 40.5t-38.5 47q-39 55 -57 127z" />
    <glyph glyph-name="z" unicode="z" 
d="M169 581q93 36 171 54q33 8 66.5 12.5t62.5 3t50.5 -10t32.5 -26.5q25 -41 31 -71t2 -54.5t-14.5 -46.5t-18.5 -47q-6 -17 -11 -38t-7.5 -42.5t-2 -40.5t6 -30.5t17 -13t30.5 12.5q33 16 58 28t44.5 15t34.5 -4t27 -28q16 -21 10.5 -43t-23 -42.5t-41.5 -38.5t-44 -30
q-14 -8 -36.5 -23t-51 -30.5t-59.5 -28.5t-61.5 -17.5t-59 2.5t-49.5 32q-17 24 -18.5 45t4.5 38t17 32t19 27q3 5 12.5 19t20.5 32.5t21 41t14 44.5t-1.5 43.5t-24.5 37.5q-16 21 -42 21.5t-54 -9t-52.5 -23.5t-36.5 -22q-8 -4 -27 -11.5t-42.5 -9.5t-48.5 6.5t-46 36.5
q-14 22 -12.5 44.5t12 43.5t28 39.5t35 33.5t33.5 24t24 12z" />
  </font>
</defs>
</svg>
